<svg width="122" height="287" viewBox="0 0 122 287" fill="none" xmlns="http://www.w3.org/2000/svg">
<g style="mix-blend-mode:multiply" opacity="0.12" clip-path="url(#clip0_2234_9664)">
<path d="M142.598 0C63.2155 0 -1 64.2155 -1 143.598C-1 222.784 63.2155 287.197 142.598 287.197C221.784 287.197 286.197 222.981 286.197 143.598C286 64.2155 221.784 0 142.598 0ZM142.598 277.939C68.337 277.939 8.25806 217.86 8.25806 143.598C8.25806 69.337 68.337 9.25806 142.598 9.25806C216.86 9.25806 276.939 69.337 276.939 143.598C276.939 217.663 216.663 277.939 142.598 277.939Z" fill="#FFCF2D"/>
<path d="M142.6 30.9258C80.5509 30.9258 30.124 81.3527 30.124 143.401C30.124 205.45 80.5509 255.877 142.6 255.877C204.648 255.877 255.075 205.647 255.075 143.598C255.075 81.3527 204.648 30.9258 142.6 30.9258ZM142.6 238.74C90.006 238.74 47.2613 195.995 47.2613 143.401C47.2613 90.8077 90.006 48.063 142.6 48.063C195.193 48.063 237.938 90.8077 237.938 143.401C237.938 195.995 195.193 238.74 142.6 238.74Z" fill="#FFCF2D"/>
</g>
<defs>
<clipPath id="clip0_2234_9664">
<rect width="287" height="287" fill="white"/>
</clipPath>
</defs>
</svg>
